# Blender 3.6.5
# www.blender.org
mtllib tree_1.mtl
o Tree.004_Mat_tree_0
v -1.613495 0.585135 0.717745
v -1.613495 2.173392 0.039132
v -2.201191 0.585135 0.378439
v -2.201191 0.585134 -0.300174
v -1.613495 0.585134 -0.639481
v -1.025799 0.585134 -0.300174
v -1.025799 0.585135 0.378439
v -1.613495 -0.367819 0.955989
v -1.613495 1.220437 0.039132
v -2.407516 -0.367819 0.497561
v -2.407516 -0.367819 -0.419296
v -1.613495 -0.367820 -0.877725
v -0.819474 -0.367819 -0.419296
v -0.819474 -0.367819 0.497561
v -1.613495 -1.320773 1.194233
v -1.613495 0.267483 0.039132
v -2.613841 -1.320774 0.616683
v -2.613841 -1.320774 -0.538418
v -1.613495 -1.320774 -1.115968
v -0.613149 -1.320774 -0.538418
v -0.613149 -1.320774 0.616683
v -1.613494 -2.273727 1.432478
v -1.613495 -0.685470 0.039133
v -2.820166 -2.273727 0.735806
v -2.820166 -2.273728 -0.657539
v -1.613495 -2.273728 -1.354211
v -0.406823 -2.273728 -0.657539
v -0.406823 -2.273727 0.735806
v -1.613494 -3.226681 1.670721
v -1.613495 -1.638425 0.039133
v -3.026491 -3.226682 0.854928
v -3.026491 -3.226682 -0.776661
v -1.613494 -3.226683 -1.592455
v -0.200498 -3.226682 -0.776661
v -0.200498 -3.226682 0.854927
v -1.613495 1.448790 0.039132
v -1.244988 -3.963792 0.251892
v -1.244988 -3.963792 -0.173624
v -1.613495 1.448790 0.039132
v -1.982001 -3.963792 0.251892
v -1.613494 -3.963792 0.464649
v -1.613495 1.448790 0.039132
v -1.613495 -3.963792 -0.386382
v -1.982001 -3.963792 -0.173624
vn -0.0000 0.3929 0.9196
vn -0.0000 1.0000 -0.0000
vn -0.7964 0.3929 0.4598
vn -0.7964 0.3929 -0.4598
vn -0.0000 0.3929 -0.9196
vn 0.7964 0.3929 -0.4598
vn 0.7964 0.3929 0.4598
vn -0.0000 0.4999 0.8661
vn -0.7500 0.4999 0.4330
vn -0.7500 0.4999 -0.4330
vn -0.0000 0.4999 -0.8661
vn 0.7500 0.4999 -0.4330
vn 0.7500 0.4999 0.4330
vn -0.0000 0.5882 0.8087
vn -0.7004 0.5882 0.4044
vn -0.7004 0.5882 -0.4044
vn -0.0000 0.5882 -0.8087
vn 0.7004 0.5882 -0.4044
vn 0.7004 0.5882 0.4044
vn -0.0000 0.6595 0.7517
vn -0.6510 0.6595 0.3759
vn -0.6510 0.6595 -0.3759
vn -0.0000 0.6595 -0.7517
vn 0.6510 0.6595 -0.3759
vn 0.6510 0.6595 0.3759
vn -0.0000 0.7166 0.6975
vn -0.6041 0.7166 0.3488
vn -0.6041 0.7166 -0.3488
vn -0.0000 0.7166 -0.6975
vn 0.6041 0.7166 -0.3488
vn 0.6041 0.7166 0.3488
vn -0.0001 1.0000 -0.0001
vn 0.8633 0.0784 0.4985
vn 0.8634 0.0784 -0.4985
vn 0.0001 1.0000 0.0001
vn -0.8634 0.0784 0.4985
vn -0.0000 0.0784 0.9969
vn 0.0001 1.0000 -0.0000
vn -0.0000 0.0784 -0.9969
vn -0.8633 0.0784 -0.4985
vn -0.0001 1.0000 -0.0000
vt 0.434515 0.681895
vt 0.438792 0.681814
vt 0.434288 0.681895
vt 0.434165 0.681818
vt 0.434248 0.681737
vt 0.434470 0.681727
vt 0.434614 0.681808
vt 0.431840 0.681923
vt 0.436131 0.681814
vt 0.431733 0.681922
vt 0.431676 0.681819
vt 0.431715 0.681712
vt 0.431819 0.681697
vt 0.431889 0.681805
vt 0.429137 0.681952
vt 0.433506 0.681813
vt 0.429249 0.681948
vt 0.429306 0.681820
vt 0.429267 0.681687
vt 0.429160 0.681666
vt 0.429086 0.681802
vt 0.426406 0.681981
vt 0.430915 0.681812
vt 0.426832 0.681973
vt 0.427045 0.681821
vt 0.426903 0.681663
vt 0.426495 0.681635
vt 0.426203 0.681800
vt 0.423646 0.682011
vt 0.428357 0.681812
vt 0.424481 0.681998
vt 0.424886 0.681822
vt 0.424616 0.681640
vt 0.423822 0.681603
vt 0.423236 0.681797
vt 0.537704 0.750612
vt 0.537348 0.753691
vt 0.540072 0.750612
vt 0.540428 0.753691
vt 0.538888 0.753691
vt 0.538888 0.750612
s 1
usemtl Mat_tree
f 1/1/1 2/2/2 3/3/3
f 4/4/4 2/2/2 5/5/5
f 5/5/5 2/2/2 6/6/6
f 7/7/7 2/2/2 1/1/1
f 3/3/3 2/2/2 4/4/4
f 6/6/6 2/2/2 7/7/7
f 8/8/8 9/9/2 10/10/9
f 11/11/10 9/9/2 12/12/11
f 12/12/11 9/9/2 13/13/12
f 14/14/13 9/9/2 8/8/8
f 10/10/9 9/9/2 11/11/10
f 13/13/12 9/9/2 14/14/13
f 15/15/14 16/16/2 17/17/15
f 18/18/16 16/16/2 19/19/17
f 19/19/17 16/16/2 20/20/18
f 21/21/19 16/16/2 15/15/14
f 17/17/15 16/16/2 18/18/16
f 20/20/18 16/16/2 21/21/19
f 22/22/20 23/23/2 24/24/21
f 25/25/22 23/23/2 26/26/23
f 26/26/23 23/23/2 27/27/24
f 28/28/25 23/23/2 22/22/20
f 24/24/21 23/23/2 25/25/22
f 27/27/24 23/23/2 28/28/25
f 29/29/26 30/30/2 31/31/27
f 32/32/28 30/30/2 33/33/29
f 33/33/29 30/30/2 34/34/30
f 35/35/31 30/30/2 29/29/26
f 31/31/27 30/30/2 32/32/28
f 34/34/30 30/30/2 35/35/31
f 36/36/32 37/37/33 38/37/34
f 39/38/35 40/39/36 41/40/37
f 42/41/38 43/40/39 44/39/40
f 36/36/32 38/37/34 43/40/39
f 42/41/41 41/40/37 37/37/33
f 39/38/35 44/39/40 40/39/36
